<svg xmlns="http://www.w3.org/2000/svg" xmlns:xlink="http://www.w3.org/1999/xlink" contentStyleType="text/css" height="781px" preserveAspectRatio="none" style="width:876px;height:781px;background:#FFFFFF;" version="1.1" viewBox="0 0 876 781" width="876px" zoomAndPan="magnify"><defs/><g><rect fill="none" height="133.1973" style="stroke:#000000;stroke-width:1.5;" width="805.5" x="10" y="141.4199"/><rect fill="none" height="238.084" style="stroke:#000000;stroke-width:1.5;" width="645.5" x="223.5" y="461.1699"/><rect fill="none" height="120.1973" style="stroke:#000000;stroke-width:1.5;" width="625.5" x="233.5" y="527.791"/><line style="stroke:#181818;stroke-width:0.5;stroke-dasharray:5.0,5.0;" x1="42" x2="42" y1="36.4883" y2="745.5645"/><line style="stroke:#181818;stroke-width:0.5;stroke-dasharray:5.0,5.0;" x1="270.5" x2="270.5" y1="36.4883" y2="745.5645"/><line style="stroke:#181818;stroke-width:0.5;stroke-dasharray:5.0,5.0;" x1="627" x2="627" y1="36.4883" y2="745.5645"/><line style="stroke:#181818;stroke-width:0.5;stroke-dasharray:5.0,5.0;" x1="810" x2="810" y1="36.4883" y2="745.5645"/><rect fill="#E2E2F0" height="30.4883" rx="2.5" ry="2.5" style="stroke:#181818;stroke-width:0.5;" width="45" x="20" y="5"/><text fill="#000000" font-family="sans-serif" font-size="14" lengthAdjust="spacing" textLength="31" x="27" y="25.5352">User</text><rect fill="#E2E2F0" height="30.4883" rx="2.5" ry="2.5" style="stroke:#181818;stroke-width:0.5;" width="45" x="20" y="744.5645"/><text fill="#000000" font-family="sans-serif" font-size="14" lengthAdjust="spacing" textLength="31" x="27" y="765.0996">User</text><rect fill="#E2E2F0" height="30.4883" rx="2.5" ry="2.5" style="stroke:#181818;stroke-width:0.5;" width="54" x="243.5" y="5"/><text fill="#000000" font-family="sans-serif" font-size="14" lengthAdjust="spacing" textLength="40" x="250.5" y="25.5352">Client</text><rect fill="#E2E2F0" height="30.4883" rx="2.5" ry="2.5" style="stroke:#181818;stroke-width:0.5;" width="54" x="243.5" y="744.5645"/><text fill="#000000" font-family="sans-serif" font-size="14" lengthAdjust="spacing" textLength="40" x="250.5" y="765.0996">Client</text><rect fill="#E2E2F0" height="30.4883" rx="2.5" ry="2.5" style="stroke:#181818;stroke-width:0.5;" width="57" x="599" y="5"/><text fill="#000000" font-family="sans-serif" font-size="14" lengthAdjust="spacing" textLength="43" x="606" y="25.5352">Server</text><rect fill="#E2E2F0" height="30.4883" rx="2.5" ry="2.5" style="stroke:#181818;stroke-width:0.5;" width="57" x="599" y="744.5645"/><text fill="#000000" font-family="sans-serif" font-size="14" lengthAdjust="spacing" textLength="43" x="606" y="765.0996">Server</text><rect fill="#E2E2F0" height="30.4883" rx="2.5" ry="2.5" style="stroke:#181818;stroke-width:0.5;" width="77" x="772" y="5"/><text fill="#000000" font-family="sans-serif" font-size="14" lengthAdjust="spacing" textLength="63" x="779" y="25.5352">Database</text><rect fill="#E2E2F0" height="30.4883" rx="2.5" ry="2.5" style="stroke:#181818;stroke-width:0.5;" width="77" x="772" y="744.5645"/><text fill="#000000" font-family="sans-serif" font-size="14" lengthAdjust="spacing" textLength="63" x="779" y="765.0996">Database</text><polygon fill="#181818" points="258.5,63.7988,268.5,67.7988,258.5,71.7988,262.5,67.7988" style="stroke:#181818;stroke-width:1.0;"/><line style="stroke:#181818;stroke-width:1.0;" x1="42.5" x2="264.5" y1="67.7988" y2="67.7988"/><text fill="#000000" font-family="sans-serif" font-size="13" lengthAdjust="spacing" textLength="204" x="49.5" y="63.0566">&#51060;&#47700;&#51068; &#51452;&#49548; &#51077;&#47141; &#48143; &#47553;&#53356; &#51204;&#49569; &#48260;&#53948; &#53364;&#47533;</text><polygon fill="#181818" points="615.5,93.1094,625.5,97.1094,615.5,101.1094,619.5,97.1094" style="stroke:#181818;stroke-width:1.0;"/><line style="stroke:#181818;stroke-width:1.0;" x1="270.5" x2="621.5" y1="97.1094" y2="97.1094"/><text fill="#000000" font-family="sans-serif" font-size="13" lengthAdjust="spacing" textLength="230" x="277.5" y="92.3672">POST /users/password/recovery &#50836;&#52397;</text><polygon fill="#181818" points="798.5,122.4199,808.5,126.4199,798.5,130.4199,802.5,126.4199" style="stroke:#181818;stroke-width:1.0;"/><line style="stroke:#181818;stroke-width:1.0;" x1="627.5" x2="804.5" y1="126.4199" y2="126.4199"/><text fill="#000000" font-family="sans-serif" font-size="13" lengthAdjust="spacing" textLength="133" x="634.5" y="121.6777">&#51060;&#47700;&#51068; &#51452;&#49548;&#47196; &#49324;&#50857;&#51088; &#51312;&#54924;</text><path d="M10,141.4199 L72,141.4199 L72,148.7305 L62,158.7305 L10,158.7305 L10,141.4199 " fill="#EEEEEE" style="stroke:#000000;stroke-width:1.5;"/><rect fill="none" height="133.1973" style="stroke:#000000;stroke-width:1.5;" width="805.5" x="10" y="141.4199"/><text fill="#000000" font-family="sans-serif" font-size="13" font-weight="bold" lengthAdjust="spacing" textLength="17" x="25" y="154.9883">alt</text><text fill="#000000" font-family="sans-serif" font-size="11" font-weight="bold" lengthAdjust="spacing" textLength="62" x="87" y="154.0547">[&#49324;&#50857;&#51088; &#51316;&#51116;]</text><line style="stroke:#181818;stroke-width:1.0;" x1="627.5" x2="669.5" y1="180.041" y2="180.041"/><line style="stroke:#181818;stroke-width:1.0;" x1="669.5" x2="669.5" y1="180.041" y2="193.041"/><line style="stroke:#181818;stroke-width:1.0;" x1="628.5" x2="669.5" y1="193.041" y2="193.041"/><polygon fill="#181818" points="638.5,189.041,628.5,193.041,638.5,197.041,634.5,193.041" style="stroke:#181818;stroke-width:1.0;"/><text fill="#000000" font-family="sans-serif" font-size="13" lengthAdjust="spacing" textLength="169" x="634.5" y="175.2988">&#51116;&#49444;&#51221; &#47553;&#53356; &#49373;&#49457; (flow_id &#54252;&#54632;)</text><polygon fill="#181818" points="53.5,218.3516,43.5,222.3516,53.5,226.3516,49.5,222.3516" style="stroke:#181818;stroke-width:1.0;"/><line style="stroke:#181818;stroke-width:1.0;" x1="47.5" x2="626.5" y1="222.3516" y2="222.3516"/><text fill="#000000" font-family="sans-serif" font-size="13" lengthAdjust="spacing" textLength="133" x="59.5" y="217.6094">&#51060;&#47700;&#51068;&#47196; &#51116;&#49444;&#51221; &#47553;&#53356; &#48156;&#49569;</text><line style="stroke:#000000;stroke-width:1.0;stroke-dasharray:2.0,2.0;" x1="10" x2="815.5" y1="231.3516" y2="231.3516"/><text fill="#000000" font-family="sans-serif" font-size="11" font-weight="bold" lengthAdjust="spacing" textLength="106" x="15" y="241.9863">[&#49324;&#50857;&#51088; &#51316;&#51116;&#54616;&#51648; &#50506;&#51020;]</text><polygon fill="#181818" points="281.5,262.6172,271.5,266.6172,281.5,270.6172,277.5,266.6172" style="stroke:#181818;stroke-width:1.0;"/><line style="stroke:#181818;stroke-width:1.0;" x1="275.5" x2="626.5" y1="266.6172" y2="266.6172"/><text fill="#000000" font-family="sans-serif" font-size="13" lengthAdjust="spacing" textLength="85" x="287.5" y="261.875">&#50640;&#47084; &#47700;&#49884;&#51648; &#48152;&#54872;</text><polygon fill="#181818" points="258.5,298.9277,268.5,302.9277,258.5,306.9277,262.5,302.9277" style="stroke:#181818;stroke-width:1.0;"/><line style="stroke:#181818;stroke-width:1.0;" x1="42.5" x2="264.5" y1="302.9277" y2="302.9277"/><text fill="#000000" font-family="sans-serif" font-size="13" lengthAdjust="spacing" textLength="144" x="49.5" y="298.1855">&#51060;&#47700;&#51068;&#50640;&#49436; &#51116;&#49444;&#51221; &#47553;&#53356; &#53364;&#47533;</text><line style="stroke:#181818;stroke-width:1.0;" x1="270.5" x2="312.5" y1="332.2383" y2="332.2383"/><line style="stroke:#181818;stroke-width:1.0;" x1="312.5" x2="312.5" y1="332.2383" y2="345.2383"/><line style="stroke:#181818;stroke-width:1.0;" x1="271.5" x2="312.5" y1="345.2383" y2="345.2383"/><polygon fill="#181818" points="281.5,341.2383,271.5,345.2383,281.5,349.2383,277.5,345.2383" style="stroke:#181818;stroke-width:1.0;"/><text fill="#000000" font-family="sans-serif" font-size="13" lengthAdjust="spacing" textLength="191" x="277.5" y="327.4961">&#51116;&#49444;&#51221; &#54168;&#51060;&#51648;&#47196; &#51060;&#46041; (flow_id &#54252;&#54632;)</text><polygon fill="#181818" points="258.5,370.5488,268.5,374.5488,258.5,378.5488,262.5,374.5488" style="stroke:#181818;stroke-width:1.0;"/><line style="stroke:#181818;stroke-width:1.0;" x1="42.5" x2="264.5" y1="374.5488" y2="374.5488"/><text fill="#000000" font-family="sans-serif" font-size="13" lengthAdjust="spacing" textLength="148" x="49.5" y="369.8066">&#49352;&#47196;&#50868; &#48708;&#48128;&#48264;&#54840; &#51077;&#47141; &#48143; &#54869;&#51064;</text><polygon fill="#181818" points="615.5,399.8594,625.5,403.8594,615.5,407.8594,619.5,403.8594" style="stroke:#181818;stroke-width:1.0;"/><line style="stroke:#181818;stroke-width:1.0;" x1="270.5" x2="621.5" y1="403.8594" y2="403.8594"/><text fill="#000000" font-family="sans-serif" font-size="13" lengthAdjust="spacing" textLength="333" x="277.5" y="399.1172">POST /users/password/reset &#50836;&#52397; (&#49352; &#48708;&#48128;&#48264;&#54840;, flow_id)</text><line style="stroke:#181818;stroke-width:1.0;" x1="627.5" x2="669.5" y1="433.1699" y2="433.1699"/><line style="stroke:#181818;stroke-width:1.0;" x1="669.5" x2="669.5" y1="433.1699" y2="446.1699"/><line style="stroke:#181818;stroke-width:1.0;" x1="628.5" x2="669.5" y1="446.1699" y2="446.1699"/><polygon fill="#181818" points="638.5,442.1699,628.5,446.1699,638.5,450.1699,634.5,446.1699" style="stroke:#181818;stroke-width:1.0;"/><text fill="#000000" font-family="sans-serif" font-size="13" lengthAdjust="spacing" textLength="109" x="634.5" y="428.4277">flow_id &#50976;&#54952;&#49457; &#44160;&#49324;</text><path d="M223.5,461.1699 L285.5,461.1699 L285.5,468.4805 L275.5,478.4805 L223.5,478.4805 L223.5,461.1699 " fill="#EEEEEE" style="stroke:#000000;stroke-width:1.5;"/><rect fill="none" height="238.084" style="stroke:#000000;stroke-width:1.5;" width="645.5" x="223.5" y="461.1699"/><text fill="#000000" font-family="sans-serif" font-size="13" font-weight="bold" lengthAdjust="spacing" textLength="17" x="238.5" y="474.7383">alt</text><text fill="#000000" font-family="sans-serif" font-size="11" font-weight="bold" lengthAdjust="spacing" textLength="74" x="300.5" y="473.8047">[flow_id &#50976;&#54952;]</text><line style="stroke:#181818;stroke-width:1.0;" x1="627.5" x2="669.5" y1="499.791" y2="499.791"/><line style="stroke:#181818;stroke-width:1.0;" x1="669.5" x2="669.5" y1="499.791" y2="512.791"/><line style="stroke:#181818;stroke-width:1.0;" x1="628.5" x2="669.5" y1="512.791" y2="512.791"/><polygon fill="#181818" points="638.5,508.791,628.5,512.791,638.5,516.791,634.5,512.791" style="stroke:#181818;stroke-width:1.0;"/><text fill="#000000" font-family="sans-serif" font-size="13" lengthAdjust="spacing" textLength="122" x="634.5" y="495.0488">&#49352; &#48708;&#48128;&#48264;&#54840; &#50976;&#54952;&#49457; &#44160;&#49324;</text><path d="M233.5,527.791 L295.5,527.791 L295.5,535.1016 L285.5,545.1016 L233.5,545.1016 L233.5,527.791 " fill="#EEEEEE" style="stroke:#000000;stroke-width:1.5;"/><rect fill="none" height="120.1973" style="stroke:#000000;stroke-width:1.5;" width="625.5" x="233.5" y="527.791"/><text fill="#000000" font-family="sans-serif" font-size="13" font-weight="bold" lengthAdjust="spacing" textLength="17" x="248.5" y="541.3594">alt</text><text fill="#000000" font-family="sans-serif" font-size="11" font-weight="bold" lengthAdjust="spacing" textLength="72" x="310.5" y="540.4258">[&#48708;&#48128;&#48264;&#54840; &#50976;&#54952;]</text><polygon fill="#181818" points="798.5,562.4121,808.5,566.4121,798.5,570.4121,802.5,566.4121" style="stroke:#181818;stroke-width:1.0;"/><line style="stroke:#181818;stroke-width:1.0;" x1="627.5" x2="804.5" y1="566.4121" y2="566.4121"/><text fill="#000000" font-family="sans-serif" font-size="13" lengthAdjust="spacing" textLength="129" x="634.5" y="561.6699">&#49324;&#50857;&#51088; &#48708;&#48128;&#48264;&#54840; &#50629;&#45936;&#51060;&#53944;</text><polygon fill="#181818" points="281.5,591.7227,271.5,595.7227,281.5,599.7227,277.5,595.7227" style="stroke:#181818;stroke-width:1.0;"/><line style="stroke:#181818;stroke-width:1.0;" x1="275.5" x2="626.5" y1="595.7227" y2="595.7227"/><text fill="#000000" font-family="sans-serif" font-size="13" lengthAdjust="spacing" textLength="170" x="287.5" y="590.9805">&#48708;&#48128;&#48264;&#54840; &#51116;&#49444;&#51221; &#49457;&#44277; &#47700;&#49884;&#51648; &#48152;&#54872;</text><line style="stroke:#000000;stroke-width:1.0;stroke-dasharray:2.0,2.0;" x1="233.5" x2="859" y1="604.7227" y2="604.7227"/><text fill="#000000" font-family="sans-serif" font-size="11" font-weight="bold" lengthAdjust="spacing" textLength="116" x="238.5" y="615.3574">[&#48708;&#48128;&#48264;&#54840; &#50976;&#54952;&#54616;&#51648; &#50506;&#51020;]</text><polygon fill="#181818" points="281.5,635.9883,271.5,639.9883,281.5,643.9883,277.5,639.9883" style="stroke:#181818;stroke-width:1.0;"/><line style="stroke:#181818;stroke-width:1.0;" x1="275.5" x2="626.5" y1="639.9883" y2="639.9883"/><text fill="#000000" font-family="sans-serif" font-size="13" lengthAdjust="spacing" textLength="85" x="287.5" y="635.2461">&#50640;&#47084; &#47700;&#49884;&#51648; &#48152;&#54872;</text><line style="stroke:#000000;stroke-width:1.0;stroke-dasharray:2.0,2.0;" x1="223.5" x2="869" y1="655.9883" y2="655.9883"/><text fill="#000000" font-family="sans-serif" font-size="11" font-weight="bold" lengthAdjust="spacing" textLength="118" x="228.5" y="666.623">[flow_id &#50976;&#54952;&#54616;&#51648; &#50506;&#51020;]</text><polygon fill="#181818" points="281.5,687.2539,271.5,691.2539,281.5,695.2539,277.5,691.2539" style="stroke:#181818;stroke-width:1.0;"/><line style="stroke:#181818;stroke-width:1.0;" x1="275.5" x2="626.5" y1="691.2539" y2="691.2539"/><text fill="#000000" font-family="sans-serif" font-size="13" lengthAdjust="spacing" textLength="85" x="287.5" y="686.5117">&#50640;&#47084; &#47700;&#49884;&#51648; &#48152;&#54872;</text><polygon fill="#181818" points="53.5,723.5645,43.5,727.5645,53.5,731.5645,49.5,727.5645" style="stroke:#181818;stroke-width:1.0;"/><line style="stroke:#181818;stroke-width:1.0;" x1="47.5" x2="269.5" y1="727.5645" y2="727.5645"/><text fill="#000000" font-family="sans-serif" font-size="13" lengthAdjust="spacing" textLength="133" x="59.5" y="722.8223">&#48708;&#48128;&#48264;&#54840; &#51116;&#49444;&#51221; &#44208;&#44284; &#54364;&#49884;</text><!--SRC=[fPJFIkjG4CRtvobcgQ1qxyADxg_WxLgYFO9Gh2HLSTTg5AdLUi5W6fBU5lzKeKAC5IhqYNhcl8EJr4IJqu9YbZdp_UOxCr-IDxWEyukmLDpYs-K5GAyl7g_G6mBU3F6a3jWw5kqx47u3HBSggpt0jead7H21AMj3aDM-k7zYOtr8MkNw7jSNOENFwb_8xHBVoEreXh5VqWivdM-KwFG0qBd2u8cDYqFPibRMrZM3gnP4nmKyxA7pYArBm8uldJhJYkNKopwsUWpe-IJ6HkW4pLjiMya5ZZmqds5cirZQNzigW6pqfFKmcv7dZKWScubSP4d2TsaKZ1SDhhYHbetT2g1LGw-UOIVJlhuK_mb37SxSi5hujcpQZ6yN6CjFMmsfq9pWHbb5eamgvOLD6EeKNOU0ZQOw1wNnqIcLezC7yMOAloA2KsaFlYP3DYtq1jyFWS7B7mc06QAdk7FmuMUMgRkChQBRbiv3kCLHKA79Htb87qvBGwQTYWfr8Mv2LNIMvdx9RHA0jFBwM9pxD6jP6qpGnqFEZ3PU6FaQlRog2GaXKUmck5IJzxFqHMnAOCHF3_NNeVwCoFZxcdBjKU2FNkZdyiybnZi0]--></g></svg>